<svg width="48" height="48" viewBox="0 0 48 48" fill="none" xmlns="http://www.w3.org/2000/svg">
<path d="M6.39987 28.444V8C6.39987 6.93913 6.8213 5.92172 7.57145 5.17157C8.32159 4.42143 9.33901 4 10.3999 4H37.5999C38.6607 4 39.6782 4.42143 40.4283 5.17157C41.1784 5.92172 41.5999 6.93913 41.5999 8V28.444M6.39987 28.444H41.5999M6.39987 28.444L3.43987 38.912C3.27176 39.5068 3.24376 40.1324 3.35807 40.7398C3.47238 41.3472 3.7259 41.9199 4.09872 42.4128C4.47154 42.9058 4.95353 43.3056 5.50686 43.581C6.06019 43.8564 6.66981 43.9998 7.28787 44H40.7119C41.3299 43.9998 41.9396 43.8564 42.4929 43.581C43.0462 43.3056 43.5282 42.9058 43.901 42.4128C44.2738 41.9199 44.5274 41.3472 44.6417 40.7398C44.756 40.1324 44.728 39.5068 44.5599 38.912L41.5999 28.444" stroke="#2020C7" stroke-width="2"/>
<path d="M22 38H26M28 12L32 16L28 20M20 12L16 16L20 20" stroke="#2020C7" stroke-width="2" stroke-linecap="round" stroke-linejoin="round"/>
</svg>
