<svg width="97" height="26" viewBox="0 0 97 26" fill="none" xmlns="http://www.w3.org/2000/svg">
<path fill-rule="evenodd" clip-rule="evenodd" d="M74.7527 0.417969L62.7846 13.2624L62.7688 13.2791L52.9867 23.4586C52.7566 23.6981 52.4329 23.8243 52.1015 23.8039C51.7701 23.7834 51.4643 23.6183 51.2655 23.3524L36.4406 3.53278L19.1019 22.8646C18.789 23.2135 18.2933 23.3333 17.8556 23.1657C17.4179 22.9982 17.1289 22.5781 17.1289 22.1094V2.88147H0V0.619364H18.2599C18.8846 0.619364 19.391 1.12575 19.391 1.75042V19.1544L35.6778 0.995228C35.9041 0.742956 36.2315 0.605426 36.5701 0.620481C36.9086 0.635536 37.2226 0.801591 37.4255 1.07295L52.2788 20.9305L60.4432 12.4345L51.2655 0.620481L53.593 0.469491L62.0053 10.771L71.5562 0.417969H74.7527Z" fill="#171738"/>
<path fill-rule="evenodd" clip-rule="evenodd" d="M94.1893 13.0003C94.1893 19.0454 89.2888 23.9459 83.2437 23.9459C79.497 23.9459 76.19 22.0634 74.2169 19.1927L73.5195 21.5463C75.892 24.2437 79.369 25.9459 83.2437 25.9459C90.3933 25.9459 96.1893 20.15 96.1893 13.0003C96.1893 5.85063 90.3933 0.0546875 83.2437 0.0546875C81.2582 0.0546875 79.3771 0.501664 77.6956 1.30048V3.56298C79.3224 2.6045 81.2188 2.05469 83.2437 2.05469C89.2888 2.05469 94.1893 6.9552 94.1893 13.0003Z" fill="#171738"/>
<path fill-rule="evenodd" clip-rule="evenodd" d="M80.0189 14.2621L78.5098 11.9929L80.3934 10.7402L82.843 14.4239L80.033 17.7516L78.3047 16.2921L80.0189 14.2621Z" fill="#171738"/>
<path fill-rule="evenodd" clip-rule="evenodd" d="M90.4895 18.1508H83.7031V15.8887H90.4895V18.1508Z" fill="#171738"/>
</svg>
