<svg width="48" height="48" viewBox="0 0 48 48" fill="none" xmlns="http://www.w3.org/2000/svg">
<path d="M21.1 6C13.396 6.014 9.36 6.204 6.782 8.78C4 11.566 4 16.044 4 25C4 33.956 4 38.434 6.782 41.218C9.566 44 14.042 44 23.002 44C31.958 44 36.436 44 39.218 41.218C41.798 38.638 41.986 34.604 42 26.898" stroke="#2020C7" stroke-width="2" stroke-linecap="round" stroke-linejoin="round"/>
<path d="M22.1116 26.0003C20.6636 7.7323 33.6036 2.5523 43.9596 4.3283C44.3776 10.3823 41.4136 12.6483 35.7736 13.6963C36.8636 14.8363 38.7876 16.2683 38.5796 18.0563C38.4316 19.3323 37.5676 19.9563 35.8356 21.2083C32.0436 23.9483 27.6516 25.6763 22.1116 26.0003Z" stroke="#2020C7" stroke-width="2" stroke-linecap="round" stroke-linejoin="round"/>
<path d="M18 34C22 23 25.92 19.272 30 16" stroke="#2020C7" stroke-width="2" stroke-linecap="round" stroke-linejoin="round"/>
</svg>
